<?xml version="1.0" standalone="no"?>
<!DOCTYPE svg PUBLIC "-//W3C//DTD SVG 20010904//EN"
 "http://www.w3.org/TR/2001/REC-SVG-20010904/DTD/svg10.dtd">
<svg version="1.0" xmlns="http://www.w3.org/2000/svg"
 width="259.000000pt" height="259.000000pt" viewBox="0 0 259.000000 259.000000"
 preserveAspectRatio="xMidYMid meet">

<g transform="translate(0.000000,259.000000) scale(0.100000,-0.100000)"
fill="#f15a26" stroke="none">
<path d="M927 2576 c-46 -17 -64 -32 -83 -67 -29 -57 -8 -151 41 -183 12 -8
51 -25 86 -36 35 -12 88 -35 116 -51 123 -68 243 -12 243 113 0 83 -57 134
-220 197 -98 37 -137 43 -183 27z"/>
<path d="M421 2302 c-95 -48 -106 -181 -20 -244 14 -11 72 -30 130 -43 219
-50 356 -108 520 -220 66 -45 88 -55 122 -55 114 0 186 129 124 221 -12 18
-61 59 -107 91 -166 113 -382 204 -592 248 -115 24 -134 25 -177 2z"/>
<path d="M180 1953 c-59 -22 -98 -105 -81 -171 19 -70 54 -91 193 -118 297
-59 586 -195 771 -363 89 -81 153 -95 225 -50 26 16 62 85 62 117 0 100 -213
278 -491 411 -257 123 -586 208 -679 174z"/>
<path d="M75 1512 c-64 -41 -70 -54 -73 -178 -8 -256 73 -538 214 -751 70
-105 228 -265 339 -345 145 -103 315 -176 485 -209 85 -16 405 -17 490 -1 247
48 459 164 660 362 151 149 248 304 310 495 50 159 64 246 65 412 0 148 -1
152 -25 178 -47 51 -74 58 -185 52 -304 -18 -571 -137 -801 -359 -106 -103
-179 -199 -237 -311 l-34 -66 -24 52 c-43 91 -117 196 -207 289 -233 242 -525
379 -842 394 -92 5 -109 3 -135 -14z m319 -307 c327 -95 588 -353 666 -659 19
-73 28 -216 14 -216 -25 0 -142 38 -201 65 -223 103 -423 309 -504 519 -49
128 -91 316 -70 316 5 0 48 -11 95 -25z m1881 -12 c-49 -285 -146 -473 -328
-632 -134 -117 -276 -193 -425 -225 l-32 -8 0 69 c1 343 297 694 682 807 111
33 110 33 103 -11z"/>
</g>
</svg>
